<svg width="15" height="12" viewBox="0 0 15 12" fill="none" xmlns="http://www.w3.org/2000/svg">
<path d="M10.9333 10.1165C9.98097 11.0699 8.72752 11.6636 7.38653 11.7965C6.04553 11.9294 4.69995 11.5932 3.57903 10.8452C2.45812 10.0972 1.63122 8.98374 1.23921 7.69445C0.847206 6.40517 0.914351 5.01985 1.42921 3.77452C1.94406 2.52919 2.87477 1.50089 4.06277 0.864823C5.25077 0.228755 6.62255 0.0242679 7.94442 0.286201C9.26628 0.548134 10.4564 1.26028 11.3121 2.30131C12.1678 3.34235 12.636 4.64785 12.6371 5.99542H11.1809C11.1818 4.98465 10.8321 4.00485 10.1916 3.22298C9.55102 2.44111 8.65916 1.90554 7.66798 1.70754C6.6768 1.50954 5.64763 1.66136 4.75584 2.13713C3.86406 2.61291 3.16484 3.38319 2.77733 4.31672C2.38983 5.25025 2.33802 6.28927 2.63073 7.25672C2.92344 8.22417 3.54257 9.06019 4.3826 9.62232C5.22263 10.1844 6.23159 10.4379 7.23756 10.3395C8.24352 10.2411 9.18423 9.79688 9.89939 9.08261L10.9333 10.1165ZM8.99653 5.99542H14.8214L11.909 8.90786L8.99653 5.99542Z" fill="#5D5FEF"/>
</svg>
